<svg id="Layer_1" data-name="Layer 1" xmlns="http://www.w3.org/2000/svg" viewBox="0 0 843.75 281.14"><defs><style>.cls-1{fill:none;stroke:#fff;stroke-miterlimit:10;}.cls-2{fill:#fff;}</style></defs><g id="Lager_2" data-name="Lager 2"><path class="cls-1" d="M831.9,582.84l36.58.63c5.19.09,10.48.17,15.47-1.24,9.3-2.62,16.63-10.28,20.56-19.11s4.81-18.73,4.45-28.39c-.52-13.78-4.74-29.22-17-35.58-5.76-3-12.45-3.48-18.93-3.86-18.34-1.07-36.76-1.73-54.88-4.74-32.41-5.38-63.46-18.19-96.19-21.08-8.27-.73-17.36,1.12-25-2.16-35.4-15.27-70.49-34.22-95.25-63.77-8.93-10.66-19.09-22-32.84-24.15a58.4,58.4,0,0,0-12.4-.12Q456,385.29,355.27,382c-9.84-.32-20-.66-29.24,2.64-10.65,3.79-19.06,12-27.11,19.9l-53,52.32c-36.78,8.2-75.14,4-112.64,7.63-5.84.56-12.06,1.46-16.47,5.35-5.14,4.53-6.48,11.85-7.87,18.56a194,194,0,0,1-9.15,30.87c-3.08,7.93-6.76,16.08-6,24.55.56,6.07,3.37,11.68,6.13,17.11l6.85,13.48c1.28,2.51,2.66,5.14,5,6.63,2.07,1.29,4.6,1.54,7,1.75q55.92,4.8,112.13,5a56.81,56.81,0,0,1,32.9-41.4c16.9-7.38,36.65-7,54-.82,13.38,4.78,25.78,13.16,33.57,25s10.48,27.45,5.29,40.68c-2.38,6.05-6.25,11.4-10.47,16.34a123.74,123.74,0,0,1-22.62,20.63c-10,7.07-22.2,12.8-34.2,10.3-8.67-1.81-15.91-7.66-22.2-13.89A158.77,158.77,0,0,1,231,587.79" transform="translate(-86.35 -378.5)"/><path class="cls-1" d="M359.85,594.69,530.34,591c59.65-1.3,119.3-2.6,179-2.76" transform="translate(-86.35 -378.5)"/><path class="cls-1" d="M739.47,631.72c3.84,3,8,5.81,12.74,7.1a39.81,39.81,0,0,0,10.57,1.07c8.89,0,17.88-.81,26.32-3.61s16.35-7.71,21.7-14.82c4.77-6.35,7.27-14.07,10.91-21.13a144.07,144.07,0,0,1,8.09-13.21,6.61,6.61,0,0,0,.89-7.41c-1.74-5.34-3.5-10.74-6.38-15.57-3.82-6.4-9.44-11.53-15.4-16C800,541.45,790,536,779.13,533.25s-22.53-2.66-33,1.32c-15.47,5.91-26.75,19.76-33.71,34.79-2.51,5.43-5.36,12.15-3.76,18.12,1.43,5.33,4.58,11.19,7.21,16.07A91.12,91.12,0,0,0,739.47,631.72Z" transform="translate(-86.35 -378.5)"/><path class="cls-1" d="M280.64,457.34A627.85,627.85,0,0,1,328,406.13a2.3,2.3,0,0,1,.92-.63c1.37-.37,2,1.66,1.89,3.08a571.79,571.79,0,0,0,0,63.87c.07,1.33-37.28,2.1-40.71,1.94-3.28-.15-17.56.3-19.36-2.7S278.76,459.61,280.64,457.34Z" transform="translate(-86.35 -378.5)"/><path class="cls-1" d="M468.5,474.39c1.35,0,2.85-.12,3.8-1.08a5.08,5.08,0,0,0,1.08-3.14,147.32,147.32,0,0,0,.16-20.48q-.94-24.24-1.9-48.49a2.2,2.2,0,0,0-.56-1.7,2.27,2.27,0,0,0-1.46-.33l-48.48.63c-5.2.07-10.4.14-15.57.64-4.61.45-9.18,1.24-13.79,1.6-10,.76-20.1-.58-30.15-.16-3.23.14-7,.77-8.53,3.6a10.1,10.1,0,0,0-.88,4.69q-.77,30.58-1.52,61.17c-.08,3.26,1,4.55,4,4.37,4.13-.25,8.26-.55,12.39-.75,8.17-.39,16.35-.59,24.52-.68,16.37-.17,32.74.12,49.11.22C450,474.57,459.24,474.57,468.5,474.39Z" transform="translate(-86.35 -378.5)"/><path class="cls-1" d="M492.58,399.17a4.09,4.09,0,0,0-2.59.53c-1,.78-1.07,2.29-1,3.59,1,23.5,2.16,47.3,9,69.8a4.14,4.14,0,0,0,5.17,3.59c7.91-.25,15.78-1.15,23.69-1.51s15.78-.16,23.66,0l87.53,2.16c5.29.13,10.67.25,15.75-1.22-7.41-10.16-21.27-13.57-29.73-22.89-3.32-3.66-5.7-8.14-9.24-11.6s-8.35-5.88-12.45-8.94c-6.77-5-11.79-12-17.55-18.18S572,402.72,563.62,401.71c-17.93-2.17-36.19-1.85-54.32-2.21Z" transform="translate(-86.35 -378.5)"/><path class="cls-1" d="M262.57,594.28a35.39,35.39,0,0,0,14.09,29.81c8.43,6.22,19.52,8.33,29.86,6.67a33.92,33.92,0,0,0,9.22-2.74c5.5-2.61,9.94-7,14.12-11.42,1.86-2,3.74-4,4.65-6.58,1.24-3.46.52-7.28-.22-10.89-1.25-6.13-2.58-12.46-6.15-17.6a39.39,39.39,0,0,0-6.82-7.14c-3.81-3.3-7.92-6.44-12.73-7.95a36.15,36.15,0,0,0-10.78-1.26,117.42,117.42,0,0,0-12.3.65c-3.55.38-6.27.31-9.14,2.5a35.72,35.72,0,0,0-11.56,15.51A34,34,0,0,0,262.57,594.28Z" transform="translate(-86.35 -378.5)"/><path class="cls-1" d="M275,573.91c-4.47,3.64-6.24,9.57-7.78,15.12a23.44,23.44,0,0,0-1.19,6.92c.12,4,2.26,7.68,4.34,11.13a1.19,1.19,0,0,0,.61.6,1.16,1.16,0,0,0,.61,0l10.52-2.79c5.71-1.51,11.42-3,17-5.05a54.54,54.54,0,0,0-10.47-18.08c-1.36-1.55-2.8-3-4.25-4.49s-3.06-4-4.78-4.87C278.14,571.55,276.31,572.88,275,573.91Z" transform="translate(-86.35 -378.5)"/><path class="cls-1" d="M306.25,624.62a2.55,2.55,0,0,0,.43,1.49,2.15,2.15,0,0,0,1.31.64c2.67.48,5.33-.88,7.54-2.46a68.6,68.6,0,0,0,5.58-4.64l4.1-3.67a14,14,0,0,0,2.64-2.85,13.74,13.74,0,0,0,1.51-4.16,34.77,34.77,0,0,0,1.47-10.1c-.1-1.9-.85-4.15-2.71-4.56a4.64,4.64,0,0,0-1.89.08c-6.16,1.18-11.77,4.15-17.74,6a36.12,36.12,0,0,1-4.7,1.13c-1.72.28-2.74-.1-2.19,1.83.92,3.29,2.14,6.46,2.9,9.8A83.18,83.18,0,0,1,306.25,624.62Z" transform="translate(-86.35 -378.5)"/><path class="cls-1" d="M275.87,610.23c-1.17.41-2.47.93-2.95,2.08a92.64,92.64,0,0,0,7.49,8.23A17.1,17.1,0,0,0,285,624a18.56,18.56,0,0,0,6.75,1.32c2.91.19,5.82.35,8.73.46a1.25,1.25,0,0,0,.77-.13,1.22,1.22,0,0,0,.45-.76,13.33,13.33,0,0,0,.35-3.51,47,47,0,0,0-2.76-16.11c-1-2.73-3.44-1.17-5.72-.53-2.76.76-5.51,1.57-8.24,2.41Q280.54,608.62,275.87,610.23Z" transform="translate(-86.35 -378.5)"/><path class="cls-1" d="M295.08,581.08a64,64,0,0,1,5.92,13,4.87,4.87,0,0,0,1,1.94,3.4,3.4,0,0,0,3,.77,11.21,11.21,0,0,0,3-1.2,56.06,56.06,0,0,1,12.58-4.52,5.68,5.68,0,0,0,2-.71,3.8,3.8,0,0,0,1.36-3.08,8.84,8.84,0,0,0-3.28-6.5A26.29,26.29,0,0,0,314.2,577l-8.44-3.92a44.09,44.09,0,0,0-4.66-2,36.65,36.65,0,0,0-5.58-1.27,36.1,36.1,0,0,0-7.69-.58c-2.26.12-3.57.47-1.49,2.29C289.68,574.56,292.68,577.25,295.08,581.08Z" transform="translate(-86.35 -378.5)"/><path class="cls-1" d="M783.86,551.94a35.42,35.42,0,0,0-32.58,5.11c-8.34,6.33-13.5,16.38-14.83,26.76a33.7,33.7,0,0,0,0,9.62c.95,6,3.91,11.51,7,16.77,1.36,2.34,2.82,4.72,5,6.32,3,2.16,6.84,2.55,10.51,2.86,6.24.53,12.68,1,18.62-.94a39.21,39.21,0,0,0,8.77-4.53c4.24-2.73,8.42-5.78,11.21-10a35.85,35.85,0,0,0,4.25-10,114.12,114.12,0,0,0,2.84-12c.64-3.51,1.47-6.1.18-9.47A35.73,35.73,0,0,0,793.21,557,33.6,33.6,0,0,0,783.86,551.94Z" transform="translate(-86.35 -378.5)"/><path class="cls-1" d="M799.88,569.66c-2.23-5.32-7.42-8.69-12.31-11.73a23.83,23.83,0,0,0-6.3-3.1c-3.9-1-8,0-11.9,1a1.22,1.22,0,0,0-.75.41,1.25,1.25,0,0,0-.13.6c-.1,3.63-.19,7.26-.29,10.88-.16,5.9-.31,11.81.06,17.7a54.47,54.47,0,0,0,20.3-5c1.87-.87,3.69-1.84,5.51-2.81s4.65-1.82,6-3.21C801.27,573.29,800.51,571.16,799.88,569.66Z" transform="translate(-86.35 -378.5)"/><path class="cls-1" d="M742.43,585.29a2.56,2.56,0,0,0-1.55,0,2.08,2.08,0,0,0-1,1.08c-1.22,2.43-.66,5.36.24,7.93A66.54,66.54,0,0,0,743,601c.79,1.66,1.58,3.31,2.36,5a14.26,14.26,0,0,0,2,3.34,14,14,0,0,0,3.56,2.63,34.9,34.9,0,0,0,9.27,4.26c1.85.44,4.22.35,5.14-1.31a4.61,4.61,0,0,0,.45-1.83c.6-6.25-.66-12.47-.73-18.71a35.44,35.44,0,0,1,.24-4.83c.21-1.73.87-2.6-1.14-2.62-3.42,0-6.8.23-10.22,0A85.63,85.63,0,0,1,742.43,585.29Z" transform="translate(-86.35 -378.5)"/><path class="cls-1" d="M764.8,560.21c-.06-1.24-.2-2.64-1.16-3.42a93.36,93.36,0,0,0-10,4.87A17.31,17.31,0,0,0,749,565a18.58,18.58,0,0,0-3.17,6.1c-1,2.74-2,5.48-2.9,8.25a1.4,1.4,0,0,0-.1.78,1.24,1.24,0,0,0,.61.65,13,13,0,0,0,3.27,1.32A47,47,0,0,0,763,584c2.91-.22,2.09-3,2.13-5.34,0-2.86,0-5.73,0-8.59C765.06,566.79,765,563.5,764.8,560.21Z" transform="translate(-86.35 -378.5)"/><path class="cls-1" d="M787.34,586.85a64,64,0,0,1-14.2,2,5,5,0,0,0-2.15.42A3.41,3.41,0,0,0,769.4,592a11.62,11.62,0,0,0,.3,3.21,55.72,55.72,0,0,1,.79,13.34,5.44,5.44,0,0,0,.13,2.09,3.78,3.78,0,0,0,2.57,2.17,8.92,8.92,0,0,0,7.17-1.31,26.54,26.54,0,0,0,5.46-5.13l6.14-7a42.85,42.85,0,0,0,3.18-3.92,34.89,34.89,0,0,0,2.79-5,36.09,36.09,0,0,0,2.72-7.21c.52-2.2.56-3.56-1.77-2.08C795.13,583.52,791.7,585.64,787.34,586.85Z" transform="translate(-86.35 -378.5)"/><path class="cls-2" d="M92.13,545.21c23.09-1.18,46.16.44,69.2,1.83l68.27,4.14c7.71.47,7.69-11.53,0-12L161.33,535c-23-1.4-46.11-3-69.2-1.83-7.69.39-7.73,12.39,0,12Z" transform="translate(-86.35 -378.5)"/><path class="cls-2" d="M360.35,555.9q128.89,5.48,257.94,1.37,36.35-1.17,72.65-3.1c7.68-.41,7.73-12.41,0-12Q562.12,549,433,546.24q-36.34-.78-72.68-2.34c-7.72-.33-7.71,11.67,0,12Z" transform="translate(-86.35 -378.5)"/><path class="cls-2" d="M847.71,552l76.59-.86c7.72-.09,7.74-12.09,0-12l-76.59.86c-7.71.09-7.73,12.09,0,12Z" transform="translate(-86.35 -378.5)"/><path class="cls-2" d="M359.18,525.84l-.1-9.21-4.34.42-.25,9.56-7.07-.56L347,500.88l7.91-.42-.24,10.82,4.38-.11-.11-10.47,6.93-.59.94,25.9Z" transform="translate(-86.35 -378.5)"/><path class="cls-2" d="M371,525.77l-2-25.62,16.49-2,.46,6.06-9.63,1.12.35,3.57,7.53-.56.56,5.57-7.39.63.52,3.78,9.45-.94.49,8.61Z" transform="translate(-86.35 -378.5)"/><path class="cls-2" d="M414.06,525.77,413,510l-5.6,15.16-3.89-.25-5-14.6-1,15.47-8.23-1.37,4.27-25.38,8.61.67L406.65,512l4.83-11.52,8.79-.31,2.52,25.87Z" transform="translate(-86.35 -378.5)"/><path class="cls-2" d="M426.8,526.89l-1.58-27.2,8.86-.7-.25,20.34,9.21-.74.25,7.11Z" transform="translate(-86.35 -378.5)"/><path class="cls-2" d="M444.9,525.31l.49-6.37,2.94.17.53-13h-2.8l-.21-6.12,15-.63-.14,6.76h-3.47l-.94,13.58,2.52.14-.46,6.83Z" transform="translate(-86.35 -378.5)"/><path class="cls-2" d="M476.05,516.84l-.1-5.11,12.92-.59a11,11,0,0,1,.07,1.5c0,10.15-6.76,14.53-12.95,14.53a14,14,0,0,1-13.93-14.28c0-8.65,6.79-13.79,14.7-13.79a19.75,19.75,0,0,1,8.86,2.13l-3.19,6.44a14.41,14.41,0,0,0-6.2-1.65c-3.26,0-6.06,1.72-6.06,6.86,0,4.45,3.36,7.6,6.2,7.6,1.85,0,3.5-1.05,4.13-3.57Z" transform="translate(-86.35 -378.5)"/><path class="cls-2" d="M506.39,526.19l-1.65-6.41L498,520l-1.05,5.57-8,.42,7.18-26.43,9-.73,9.42,27Zm-5.46-19.29-2,8.26h4.59Z" transform="translate(-86.35 -378.5)"/><path class="cls-2" d="M547,526.85l-8.86-9.14-1,9.31-5.71-1.26-.8-25.62,8.65.21-1,10.4,7.14-9.94,8,.42-9.31,12,9.07,9Z" transform="translate(-86.35 -378.5)"/><path class="cls-2" d="M556.65,526.89l-1.58-27.2,8.86-.7-.25,20.34,9.21-.74.25,7.11Z" transform="translate(-86.35 -378.5)"/><path class="cls-2" d="M595.47,499.3a54,54,0,0,1,.59,8.12c0,9.59-2.56,19.85-10.85,19.85-7.67,0-11.27-9.35-11.27-20.23a55.55,55.55,0,0,1,.67-8l8.12.88a27.53,27.53,0,0,0-.8,6.9c0,6.48,1.19,10.82,3.92,10.82,3.08,0,4.06-4.17,4.06-10.08a44.6,44.6,0,0,0-.67-7.73Z" transform="translate(-86.35 -378.5)"/><path class="cls-2" d="M598,501.12a33.54,33.54,0,0,1,9.73-1.47c6.16,0,10.85,1.93,10.85,5.64,0,2.38-1.61,4.13-4.41,6,4.24.38,7.18,2.21,7.18,5.92,0,6.06-9.24,9-17,9a26.17,26.17,0,0,1-4.83-.42Zm7.67,9.42c2.87-.07,5.29-1.47,5.29-3.29,0-1.58-1.44-2.38-3.36-2.38a5.2,5.2,0,0,0-2.38.56Zm1.23,9.91c3.15-.07,6-1.26,6-3.22,0-1.47-1.36-2-3.25-2a8,8,0,0,0-3.19.6Z" transform="translate(-86.35 -378.5)"/><path class="cls-2" d="M622.31,501.12a33.54,33.54,0,0,1,9.73-1.47c6.16,0,10.85,1.93,10.85,5.64,0,2.38-1.61,4.13-4.41,6,4.24.38,7.17,2.21,7.17,5.92,0,6.06-9.24,9-17,9a26.17,26.17,0,0,1-4.83-.42Zm7.66,9.42c2.87-.07,5.29-1.47,5.29-3.29,0-1.58-1.44-2.38-3.36-2.38a5.2,5.2,0,0,0-2.38.56Zm1.23,9.91c3.15-.07,5.95-1.26,5.95-3.22,0-1.47-1.36-2-3.25-2a8,8,0,0,0-3.19.6Z" transform="translate(-86.35 -378.5)"/><path class="cls-2" d="M648.84,525.77l-2-25.62,16.49-2,.46,6.06-9.63,1.12.35,3.57,7.53-.56.56,5.57-7.39.63.53,3.78,9.45-.94.49,8.61Z" transform="translate(-86.35 -378.5)"/><path class="cls-2" d="M684.82,526.92l-9.56-14.84.63,14.14-7.49-.77-.63-23.7,8.16-1.54,6.93,13.2-.53-13.34,8.79-.49-2.34,26.53Z" transform="translate(-86.35 -378.5)"/></g></svg>