<svg xmlns="http://www.w3.org/2000/svg" viewBox="0 0 790.2 254.42"><defs><style>.cls-1,.cls-2{fill:none;stroke:#fff;stroke-miterlimit:10;}.cls-1{stroke-width:1.68px;}.cls-2{stroke-width:1.26px;}.cls-3,.cls-4{fill:#fff;}.cls-4{font-size:30.27px;font-family:Marvin;letter-spacing:0.04em;}.cls-5{letter-spacing:0.02em;}.cls-6{letter-spacing:0.02em;}</style></defs><g id="Lager_1" data-name="Lager 1"><path class="cls-1" d="M266.16,430.84l62.58-57.26c4.79-4.39,9.75-8.87,15.85-11.1,6.49-2.36,13.63-1.93,20.53-1.51a1339.57,1339.57,0,0,0,179.2-1.28c5.91-.44,11.93-.9,17.69.5s10.71,4.48,15.64,7.59a973.16,973.16,0,0,1,109.19,80c29.31,0,58.26,3.5,87,9.18,9.31,1.84,18.58,4,28,5,21.13,2.34,43.86-.57,62.47,9.71,4.38,2.41,8.47,5.61,11.06,9.88,4.53,7.44,3.89,16.79,3.1,25.47" transform="translate(-120.16 -358.41)"/><path class="cls-1" d="M267.47,429.63c-.69,1.34-2.42,1.7-3.92,1.89a410.18,410.18,0,0,1-83,2.54c-7.72-.55-15.59-1.31-23.12.47a15.39,15.39,0,0,0-6.65,3,17.49,17.49,0,0,0-3.72,5.19,89.61,89.61,0,0,0-7.43,18.85c-3.38,12.55-4,25.71-7.51,38.22-1.71,6.14-4.12,12.65-2,18.67,1,3,3.09,5.51,5.11,8l14.36,17.42a4,4,0,0,0,.83.82,4.17,4.17,0,0,0,2.13.51l29,1.68c23.64,1.37,47.28,2.74,70.83,5.11" transform="translate(-120.16 -358.41)"/><path class="cls-1" d="M251.34,551.67c3.7-8.63,7.53-17.42,13.79-24.43a51.94,51.94,0,0,1,23.66-14.59,79.72,79.72,0,0,1,27.85-2.89A59.08,59.08,0,0,1,335,513.33c9.21,3.63,16.76,10.51,23.33,17.92a67.11,67.11,0,0,1,7.14,9.32,44.23,44.23,0,0,1,6.5,21.5" transform="translate(-120.16 -358.41)"/><path class="cls-1" d="M371.46,561.18c20.85-4.7,42.39-5.17,63.76-5.63L461.7,555l116.14-2.45c39.66-.84,78.73.1,118.37,1.62-2.2-16,2.51-34.23,15.34-44.07,6.9-5.29,15.48-7.85,24-9.77a104.24,104.24,0,0,1,21.93-2.95A36.89,36.89,0,0,1,769.72,499c6.62,2.26,12,7.14,17.09,11.9a30.1,30.1,0,0,1,9.76,14l9.45,22.9a171.82,171.82,0,0,0,29.82-1.09L867,543.09c5.31-.62,10.7-1.27,15.61-3.36,11.14-4.75,18.22-16.76,18.9-28.85.07-1.36,0-2.89-1-3.82s-2.32-.9-3.58-.89l-19.25.17" transform="translate(-120.16 -358.41)"/><path class="cls-1" d="M696.1,553.27C698.63,566,707,576.74,716,586c3.37,3.47,6.94,6.86,11.29,9,9,4.4,19.7,2.56,29.75,2.83,3.07.09,6.18.37,9.16-.34a27.73,27.73,0,0,0,7-3.08A48.38,48.38,0,0,0,794,576.05,42.65,42.65,0,0,0,802.51,558l3-10.6" transform="translate(-120.16 -358.41)"/><path class="cls-1" d="M734,535.93c-3,4.27-5.55,9-5.78,14.22-.38,8.27,5.63,15.87,13.12,19.39s16.15,3.63,24.36,2.59a24.75,24.75,0,0,0,8.8-2.42c5.2-2.86,8-8.68,9.67-14.39,1.17-4.12,1.85-8.61.31-12.61a19.39,19.39,0,0,0-5-6.85c-8-7.61-19.89-12.42-30.17-8.41C743.14,529.83,737.87,530.24,734,535.93Z" transform="translate(-120.16 -358.41)"/><path class="cls-2" d="M743.36,534c4.24-2.3,9.1-3.19,13.89-3.76a5.09,5.09,0,0,1,2.2.07,3.44,3.44,0,0,1,2,2.36,9.22,9.22,0,0,1,.2,3.23,78.53,78.53,0,0,1-2,13.63,5.16,5.16,0,0,1-1.85,3.36c-1.52.94-3.48.13-5.07-.69l-4.85-2.5c-3.67-1.89-8.25-3.87-11-7.06S740.93,535.36,743.36,534Z" transform="translate(-120.16 -358.41)"/><path class="cls-2" d="M753.73,564.49c-.48,1.59-.84,3.53.28,4.76a3.64,3.64,0,0,0,1.87,1c3.24.81,6.52-.78,9.77-1.55a45.55,45.55,0,0,0,4.52-1c4.58-1.54,7.67-5.94,9.18-10.52a1.49,1.49,0,0,0,.09-.88,1.25,1.25,0,0,0-.54-.62,6.57,6.57,0,0,0-3.32-.75c-5.3-.24-11.2-.81-16.46,0C755.49,555.45,754.6,561.58,753.73,564.49Z" transform="translate(-120.16 -358.41)"/><path class="cls-2" d="M763,548.86a1.89,1.89,0,0,0,.11,1.31,1.61,1.61,0,0,0,.84.55,12.49,12.49,0,0,0,3.71.56l10.05.49a4.21,4.21,0,0,0,1.46-.11,2.69,2.69,0,0,0,1.59-1.9,7.15,7.15,0,0,0,.07-2.57,19.41,19.41,0,0,0-1.14-5.39,15.18,15.18,0,0,0-5.13-6.22,46.23,46.23,0,0,0-7.08-4c-2.3-1.13-2.14-.16-2.11,1.83a32.09,32.09,0,0,1-.4,5.27C764.44,542.07,763.55,545.44,763,548.86Z" transform="translate(-120.16 -358.41)"/><path class="cls-2" d="M733.27,555.73a17.2,17.2,0,0,0,3.68,4.74c3,3.08,6.27,6.29,10.46,7.34a1.69,1.69,0,0,0,1,0,1.64,1.64,0,0,0,.59-.42c2.42-2.39,3.07-6,3.6-9.35a3.8,3.8,0,0,0,.06-1.3,3,3,0,0,0-.81-1.44c-1.71-1.81-4.4-2.28-6.48-3.66a26.65,26.65,0,0,1-2.4-2c-1.31-1.15-2.72-2.17-4.14-3.19-2.23-1.61-4.71-2.64-5.65.54C732.32,549.85,732,553,733.27,555.73Z" transform="translate(-120.16 -358.41)"/><path class="cls-1" d="M341.57,561.29c.55-5.16.57-10.59-1.7-15.25-3.62-7.45-12.53-11.26-20.79-10.78s-15.92,4.52-22.63,9.35a24.46,24.46,0,0,0-6.58,6.32c-3.21,5-2.94,11.47-1.64,17.27.94,4.17,2.49,8.44,5.74,11.22a19.59,19.59,0,0,0,7.68,3.63c10.64,2.88,23.41,1.42,30.53-7C336.41,571,340.84,568.16,341.57,561.29Z" transform="translate(-120.16 -358.41)"/><path class="cls-2" d="M334.21,567.44c-2.63,4-6.48,7.15-10.42,9.94a5.05,5.05,0,0,1-2,1,3.46,3.46,0,0,1-2.93-1.1,9.39,9.39,0,0,1-1.72-2.74,78.56,78.56,0,0,1-4.72-12.94c-.34-1.27-.63-2.7,0-3.84.88-1.55,3-1.77,4.78-1.81l5.46-.12c4.12-.09,9.09-.53,13,1S335.71,565.13,334.21,567.44Z" transform="translate(-120.16 -358.41)"/><path class="cls-2" d="M310.57,545.64c-.34-1.64-.95-3.51-2.53-4.06a3.73,3.73,0,0,0-2.12,0c-3.23.84-5.36,3.81-7.85,6-1.15,1-2.42,1.93-3.48,3.06-3.28,3.54-3.9,8.88-3,13.63a1.41,1.41,0,0,0,.34.82,1.23,1.23,0,0,0,.77.28,6.55,6.55,0,0,0,3.28-.92c4.77-2.32,10.22-4.64,14.46-7.86C313.32,554.42,311.18,548.6,310.57,545.64Z" transform="translate(-120.16 -358.41)"/><path class="cls-2" d="M309.89,563.78a1.81,1.81,0,0,0-.72-1.09,1.62,1.62,0,0,0-1-.09,13,13,0,0,0-3.53,1.28l-9.06,4.37a3.87,3.87,0,0,0-1.23.79,2.67,2.67,0,0,0-.5,2.43,7.2,7.2,0,0,0,1.17,2.29,19.14,19.14,0,0,0,3.57,4.19,15.23,15.23,0,0,0,7.48,3,45.25,45.25,0,0,0,8.15.17c2.56-.1,1.95-.88,1-2.61a33.05,33.05,0,0,1-2.17-4.82C311.85,570.44,311,567.06,309.89,563.78Z" transform="translate(-120.16 -358.41)"/><path class="cls-2" d="M332.72,543.57a16.9,16.9,0,0,0-5.49-2.41c-4.13-1.27-8.51-2.54-12.7-1.46a1.71,1.71,0,0,0-.87.43,1.65,1.65,0,0,0-.32.65c-1,3.25.16,6.73,1.3,9.94a3.64,3.64,0,0,0,.57,1.17,2.93,2.93,0,0,0,1.4.87c2.37.78,4.95-.09,7.44.13a25.09,25.09,0,0,1,3.06.61c1.7.38,3.43.6,5.15.82,2.74.35,5.41.07,4.72-3.17C336.36,548.29,335.12,545.38,332.72,543.57Z" transform="translate(-120.16 -358.41)"/><path class="cls-1" d="M251.56,550.7c-.62,7.65,1.35,15.35,4.61,22.3s7.77,13.23,12.48,19.29c4.28,5.51,8.92,11,15.08,14.3a43.52,43.52,0,0,0,13.2,4c17.2,3,36,1.47,50.28-8.6a62.19,62.19,0,0,0,9.27-8.19,64.57,64.57,0,0,0,7.95-10.05,50.17,50.17,0,0,0,7.44-22.45" transform="translate(-120.16 -358.41)"/><path class="cls-1" d="M344.25,385.74a4.09,4.09,0,0,1,2-1.07c2.23-.26,3.22,2.72,3.34,5a118,118,0,0,1-.9,21.58c-1.26,9.48-3.69,19-2.86,28.48.25,2.87.51,6.4-1.92,8a7,7,0,0,1-3,.85,143.66,143.66,0,0,1-28.2.75c-4.41-.32-22.87-.44-23.37-5.82-.28-3.09,4.53-7.33,6.27-9.49q4.13-5.08,8.45-10,8.64-9.82,18.09-18.9Q332.75,394.88,344.25,385.74Z" transform="translate(-120.16 -358.41)"/><path class="cls-1" d="M503.77,448.85a2.73,2.73,0,0,0,.57,1.39,2.83,2.83,0,0,0,2,.61q36.12,1,72.24-.52c7.16-.31,14.31-.69,21.47-.62,15.69.16,31.34,2.48,47,1.67,1.64-.08,3.86-.92,3.47-2.52a2.74,2.74,0,0,0-1.1-1.38c-3.6-2.82-7.81-4.72-11.85-6.87-12.12-6.45-22.82-15.22-33.43-23.93l-36.59-30c-2.76-2.26-5.57-4.56-8.87-5.93-4.2-1.75-8.87-1.87-13.42-1.93q-12.81-.18-25.61.06c-6.87.13-16.41-1.26-23,1-6.24,2.11-2.44,12.08-1.77,17.06q1.63,12.31,3.69,24.56Q501,435.19,503.77,448.85Z" transform="translate(-120.16 -358.41)"/><path class="cls-1" d="M367.06,447.58a3.36,3.36,0,0,1-2.57-.73,3.25,3.25,0,0,1-.62-2,489.88,489.88,0,0,1-2.16-55.25c.05-2.93.18-6.05,1.82-8.48,2.06-3.06,6-4.24,9.58-5,17.84-3.47,36.2-.58,54.32.89a347.34,347.34,0,0,0,42.68.82c1.84-.08,3.81-.14,5.38.83,2.6,1.62,2.91,5.22,2.87,8.29-.23,18.57-2.73,37.34.63,55.61a7.75,7.75,0,0,1,.06,3.94c-1,2.86-4.78,3.34-7.82,3.33-14.39,0-28.77-.11-43.16-.16-13-.06-27.87,1.88-40.5-1.18C380.9,447,373.91,447.57,367.06,447.58Z" transform="translate(-120.16 -358.41)"/><path class="cls-3" d="M897.37,510.57q-25-1.8-50.09-2.42c-6.2-.15-12.45-.24-18.55.87a9.12,9.12,0,0,0-3.54,1.23,3.49,3.49,0,0,0-1.62,3.19c.32,2.22,3.07,3,5.3,3.19,3,.22,5.92.22,8.89.21l56.3-.1a12,12,0,0,0,4.26-.54,4,4,0,0,0,2.64-3.13c.16-2-1.74-3.57-3.67-3.88s-3.87.32-5.76.85c-19.45,5.38-40.29.15-60.27,3" transform="translate(-120.16 -358.41)"/><path class="cls-3" d="M897.37,506.36q-25.14-1.8-50.33-2.42c-4-.09-8-.16-11.93.11q-3.3.22-6.56.76a13,13,0,0,0-5.78,2,7.79,7.79,0,0,0-3.42,6.41,7.27,7.27,0,0,0,3.27,5.71c3,2.17,7.38,2,10.94,2.06,16.83.27,33.7,0,50.53-.07,4,0,8.14.28,12.14-.09a10.54,10.54,0,0,0,6.59-2.66,7.43,7.43,0,0,0,2.24-6.37c-.63-4.72-5.58-7.37-10-6.85a50.83,50.83,0,0,0-6.22,1.4c-1.87.47-3.76.84-5.67,1.13l-.71.11-1.37.17c-1,.11-2,.2-3,.28q-3,.23-6,.28c-3.89.09-7.78,0-11.66-.11-7.95-.24-15.91-.63-23.85,0-2.15.17-4.3.43-6.44.72s-3.57,3.21-2.93,5.17c.77,2.41,2.82,3.26,5.17,2.94-.72.1.79-.09.73-.09l1.39-.15,2.31-.2c1.86-.14,3.73-.22,5.59-.26,3.59-.09,7.18,0,10.76.07,7.16.2,14.32.56,21.48.26a95.81,95.81,0,0,0,11.22-1.13c1.68-.27,3.34-.6,5-1l2.23-.59,1.32-.36c.3-.08.59-.15.89-.21.52-.09.59-.11.22,0,.29,0,.59,0,.89,0l.44,0c-.44-.05-.44,0,0,.07l-.35-.16a4.59,4.59,0,0,1,.61.35c-.93-.61.25.37-.17-.15l-.12-.16c.23.42.23.39,0-.1l0-.46c.13-.54.13-.57,0-.08l.13-.37c.32-.36.31-.37,0,0,.39-.27.38-.27,0,0l-.32.17c.8-.35-.49.06-.57.07.81-.15-.56,0-.6,0-.76,0-1.53,0-2.3,0l-6,0-45.84.08c-3.71,0-7.43.08-11.14-.13-.4,0-.82-.08-1.23-.08-1,0,.89.23-.13,0-.32-.07-.63-.13-.94-.22-.08,0-1-.42-.39-.11s-.26-.18-.31-.21l.39.31c-.32-.33-.28-.26.11.21-.43-.6.15.42.15.68,0,.51-.43.83,0,.38-.17.17-.86.7-.08.21s-.44,0,.53-.21c.71-.15,1.4-.33,2.12-.46a47.48,47.48,0,0,1,5-.55c3.65-.23,7.32-.19,11-.1q25.54.57,51,2.43a4.22,4.22,0,0,0,4.2-4.2,4.3,4.3,0,0,0-4.2-4.21Z" transform="translate(-120.16 -358.41)"/><path class="cls-3" d="M138,502.66c-3.16-.72-6.54-1.44-9.57-.28s-5.22,5-3.45,7.76c1.45,2.23,4.54,2.51,7.2,2.57l124.56,2.61c1.42,0,3.21-.19,3.64-1.54.59-1.89-2.08-3-4.05-3.15l-112.13-9a32.14,32.14,0,0,0-9.19.14,10.93,10.93,0,0,0-7.46,4.92L185.4,511" transform="translate(-120.16 -358.41)"/><path class="cls-3" d="M139.07,498.61c-5.22-1.2-11-1.95-15.36,1.79-3.94,3.35-5,9.48-1.22,13.37,3.5,3.64,9.27,3.14,13.88,3.23l15.94.34,64,1.34,31.89.67,8,.17c2.5.05,5.06-.35,6.85-2.25a6,6,0,0,0-.34-8.34c-1.88-1.8-4.43-2.34-6.92-2.55-21.43-1.77-42.86-3.43-64.29-5.14l-31.89-2.56c-5.3-.42-10.61-.86-15.91-1.27-5-.39-10.18-.39-14.67,2.15a14,14,0,0,0-5.15,5c-1.73,2.9.54,6.1,3.63,6.33l57.9,4.25a4.23,4.23,0,0,0,4.21-4.2,4.32,4.32,0,0,0-4.21-4.21l-57.9-4.25,3.63,6.32c.12-.21.26-.41.39-.62,0,.07-.43.46-.1.13s.58-.61.9-.9c.14-.14.61-.4,0,0,.16-.09.3-.2.46-.3a11.53,11.53,0,0,1,1.47-.79c-.65.3.13,0,.39-.1a14.35,14.35,0,0,1,1.43-.38c.15,0,1.22-.18.7-.13.69-.07,1.38-.1,2.06-.11,4.67-.07,9.39.58,14,.95L182,508.89l58.31,4.67,14.7,1.17.75.06c1.25.08.09-.06,0,0,.34-.09.75.28,1.09.27s-.11-.06-.26-.14l.54.3c-.12-.06-.65-.63-.19-.12a3.1,3.1,0,0,1-.74-1.83,2.55,2.55,0,0,1,1.32-2.13c.45-.31,0,0-.22,0-.49.06.32,0,.33,0-1.14,0-2.3,0-3.44,0l-29.15-.61-58.29-1.23-29.15-.61c-2.23-.05-4.48,0-6.72-.16-.32,0-1.31-.17-.49,0-.4-.07-.81-.15-1.21-.26-.12,0-.83-.24-.3-.06s0,0-.12-.07a6.53,6.53,0,0,1-.56-.35c.3.22.48.21.11,0,.35.2.31.42.07,0,0,0,.37.69.13.29s.06-.67-.06-.19,0,.15,0,0c-.13,1.15.09-.13.16-.4,0,.14-.37.54-.1.26a3.82,3.82,0,0,0,.42-.7c0,.09-.49.48-.15.2.16-.13.3-.32.46-.47a2.91,2.91,0,0,1,.37-.33c-.13.1-.68.47,0,.09.07-.05.55-.35.08-.08s.26-.09.42-.13.42-.12.63-.17l.43-.08c-.33,0-.34,0,0,0,.51,0,1,0,1.53,0,.3,0,.59,0,.89.07-.1,0-.51-.08,0,0,1.1.16,2.2.42,3.29.67a4.21,4.21,0,1,0,2.23-8.11Z" transform="translate(-120.16 -358.41)"/><path class="cls-3" d="M682.94,518.38q-152.43,6.11-305.05,1.47" transform="translate(-120.16 -358.41)"/><path class="cls-3" d="M682.94,508.29q-118.56,4.72-237.26,3-33.9-.51-67.79-1.53c-13-.4-13,19.79,0,20.18q118.61,3.57,237.28.72,33.9-.82,67.77-2.18c12.94-.52,13-20.7,0-20.19Z" transform="translate(-120.16 -358.41)"/><path class="cls-3" d="M829.53,510.78l-2,.2a408.16,408.16,0,0,1,72.74.8" transform="translate(-120.16 -358.41)"/><path class="cls-3" d="M829.53,500.69l-2,.2c-5.42.54-10.09,4.25-10.09,10.09,0,5.14,4.63,10.51,10.09,10.09a418.75,418.75,0,0,1,72.74.8c5.43.53,10.09-5,10.09-10.09,0-5.9-4.64-9.56-10.09-10.1a418.75,418.75,0,0,0-72.74-.79v20.18l2-.2c5.43-.54,10.1-4.25,10.1-10.09,0-5-4.64-10.63-10.1-10.09Z" transform="translate(-120.16 -358.41)"/><text class="cls-4" transform="translate(251.53 135.01)">HEMLI<tspan class="cls-5" x="106.04" y="0">G</tspan><tspan x="131.29" y="0">A K</tspan><tspan class="cls-6" x="190.87" y="0">L</tspan><tspan x="208.52" y="0">UBBEN</tspan></text></g></svg>