<?xml version="1.0" encoding="utf-8"?>
<!-- Generator: Adobe Illustrator 25.4.1, SVG Export Plug-In . SVG Version: 6.00 Build 0)  -->
<svg version="1.1" id="Lager_1" xmlns="http://www.w3.org/2000/svg" xmlns:xlink="http://www.w3.org/1999/xlink" x="0px" y="0px"
	 viewBox="0 0 1000 1500" style="enable-background:new 0 0 1000 1500;" xml:space="preserve">
<style type="text/css">
	.st0{fill:#376DA9;}
</style>
<g>
	<g>
		<g>
			<path class="st0" d="M547.86,1057.53c2-17.96,5.7-35.69,10.03-53.23c26.05-105.53,75.61-205.19,144.04-289.64
				c20.6-25.42,44.83-50.68,76.62-58.43c24.67-6.02,51.11-0.46,73.8,10.94c22.69,11.39,42.15,28.27,60.48,45.84
				c12.22,11.71,24.17,23.95,33.04,38.36c13.44,21.84,19.09,47.47,24.15,72.61c7.62,37.8,14.42,75.98,15.02,114.54
				c0.38,24.83-2.1,50.62-14.51,72.13c-12.41,21.51-36.82,37.62-61.36,33.84c-21.94-3.37-38.6-20.85-53.46-37.33
				c-46.94-52.02-95.34-106.63-114.19-174.12c-1.1-3.93-3.62-8.9-7.59-7.98c-1.84,0.42-3.11,2.06-4.22,3.6
				c-67.91,94.43-118.48,201.28-148.46,313.67c-0.99,3.72-2.09,7.67-4.96,10.25c-15.4,13.84-30.38-18.19-31.56-29.36
				C542.57,1102.75,545.6,1077.87,547.86,1057.53z"/>
			<path class="st0" d="M817.57,1017.1c3.75-6.01,8.15-11.61,13.11-16.67c2.82-2.88,5.85-5.62,7.99-9.04
				c0.31-0.5,0.61-1.05,0.56-1.63c-0.05-0.57-0.42-1.05-0.77-1.49c-11.91-14.94-24.74-29.67-37.36-44.02
				c-7.57,13.92-14.87,27.98-21.91,42.17c-15.49,31.25-39.81,56.36-59.65,85.05c-5.94,8.59-11.33,17.58-17.87,25.72
				c-4.69,5.84-9.95,11.19-15.23,16.51c-14.93,15.04-30.11,29.82-45.29,44.61c-5.2,5.06-10.39,10.12-15.59,15.19
				c-0.9,0.87-1.83,1.8-2.17,3c-0.8,2.78,1.76,5.29,4.06,7.05c8.41,6.45,18.29,13.28,28.67,11.16c5.45-1.11,10.08-4.58,14.51-7.95
				c27.18-20.74,54.44-41.89,76.47-68.04c8.79-10.44,16.69-21.59,24.57-32.73C788.29,1062.53,802.35,1041.51,817.57,1017.1z"/>
			<path class="st0" d="M108.23,418.44c-16.99,8.12-25.32,27.31-30.98,45.28c-38.98,123.82-17.01,257.69,7.27,385.21
				c11.2,58.8,23.18,118.55,51.68,171.18c18.54,34.24,43.55,64.48,68.39,94.46c7.6,9.17,15.81,18.77,27.13,22.45
				c17.53,5.71,35.9-4.46,51.53-14.24c5.84-3.66,12.06-7.76,14.48-14.21c5.08-13.57-8.97-25.95-20.4-34.86
				c-58.48-45.6-86.92-118.77-112.69-188.3c-4.52-12.21-9.06-24.45-12.21-37.08c-12.23-49.04-3.02-100.58,6.23-150.26
				c0.99-5.33,2.37-11.26,6.93-14.21c5.17-3.34,12.1-1.27,17.44,1.79c18.26,10.47,28.74,30.3,37.97,49.22
				c55.32,113.5,100.66,234.7,105.72,360.86c15.01,10.04,36.76-0.28,45.2-16.25c8.44-15.96,7.38-35.07,6.12-53.08
				c-7.16-102.45-13.74-205.78-40.95-304.81c-14.72-53.56-35.48-105.44-61.65-154.43c-21.65-40.53-49.81-99.96-89.65-124.88
				C163.14,428.11,136.71,404.82,108.23,418.44z"/>
		</g>
		<path class="st0" d="M214.8,1147.38c-38.85,35.81-78.81,73.16-99.66,121.88c-11.3,26.41-16.78,55.76-33.44,79.12
			c-9.22,12.93-21.45,23.36-31.72,35.46c-27.03,31.84-39.6,75.68-33.58,117.1s30.55,79.7,65.51,102.25
			c19.84,12.8,42.41,20.54,63.34,31.44c87.67,45.65,143.69,144.79,238.17,173.53c66.98,20.38,144.95-2.47,190.78-55.9
			c11.25-13.12,20.74-27.91,33.71-39.31c16.98-14.92,38.65-22.96,59.46-31.64c35.45-14.78,70.55-32.82,96.97-60.88
			c26.42-28.06,43.04-67.83,35.5-105.71c-5.44-27.29-22.38-50.57-33.87-75.87c-14.72-32.44-20.43-68.15-29.18-102.73
			c-9.24-36.53-22.01-72.15-38.07-106.19c-13.52-28.66-30.13-57.07-55.71-75.54c-17.47-12.61-38.13-19.86-58.65-26.32
			c-69.98-22.03-142.27-35.01-212.57-55.3C309.86,1054.92,257.56,1107.96,214.8,1147.38z"/>
	</g>
</g>
</svg>
