<?xml version="1.0" encoding="utf-8"?>
<!-- Generator: Adobe Illustrator 25.4.1, SVG Export Plug-In . SVG Version: 6.00 Build 0)  -->
<svg version="1.1" id="Lager_1" xmlns="http://www.w3.org/2000/svg" xmlns:xlink="http://www.w3.org/1999/xlink" x="0px" y="0px"
	 viewBox="0 0 1000 1500" style="enable-background:new 0 0 1000 1500;" xml:space="preserve">
<style type="text/css">
	.st0{fill:#376DA9;}
</style>
<g>
	<g>
		<g>
			<path class="st0" d="M552.88,687.07c1.97-17.67,5.61-35.11,9.87-52.37c25.63-103.82,74.39-201.87,141.71-284.96
				c20.26-25.01,44.11-49.86,75.38-57.49c24.27-5.92,50.28-0.45,72.61,10.76c22.33,11.21,41.47,27.81,59.5,45.1
				c12.02,11.52,23.78,23.56,32.51,37.74c13.22,21.49,18.78,46.7,23.76,71.44c7.49,37.19,14.19,74.75,14.78,112.69
				c0.38,24.43-2.07,49.8-14.27,70.96c-12.21,21.16-36.23,37.01-60.37,33.3c-21.58-3.32-37.97-20.52-52.6-36.73
				c-46.18-51.18-93.8-104.91-112.34-171.31c-1.08-3.87-3.56-8.75-7.47-7.86c-1.81,0.42-3.06,2.03-4.15,3.54
				c-66.81,92.9-116.57,198.03-146.06,308.6c-0.98,3.66-2.06,7.55-4.88,10.08c-15.15,13.62-29.89-17.9-31.05-28.89
				C547.67,731.56,550.65,707.08,552.88,687.07z"/>
			<path class="st0" d="M818.23,647.29c3.69-5.91,8.02-11.42,12.89-16.4c2.77-2.83,5.75-5.53,7.86-8.89c0.31-0.49,0.6-1.03,0.55-1.6
				c-0.05-0.56-0.41-1.03-0.76-1.47c-11.72-14.7-24.34-29.19-36.75-43.31c-7.45,13.69-14.63,27.53-21.56,41.49
				c-15.24,30.75-39.17,55.45-58.69,83.68c-5.84,8.45-11.14,17.3-17.58,25.31c-4.62,5.74-9.79,11.01-14.98,16.24
				c-14.69,14.79-29.63,29.34-44.56,43.89c-5.11,4.98-10.22,9.96-15.34,14.94c-0.88,0.86-1.8,1.77-2.14,2.96
				c-0.79,2.73,1.74,5.21,3.99,6.94c8.27,6.35,17.99,13.07,28.21,10.98c5.36-1.09,9.92-4.5,14.27-7.83
				c26.74-20.41,53.56-41.21,75.24-66.94c8.65-10.27,16.42-21.24,24.17-32.2C789.42,691.98,803.25,671.31,818.23,647.29z"/>
			<path class="st0" d="M120.35,58.3c-16.72,7.99-24.91,26.87-30.48,44.55c-38.35,121.82-16.74,253.53,7.15,378.99
				c11.02,57.85,22.81,116.63,50.85,168.42c18.24,33.69,42.85,63.43,67.29,92.94c7.47,9.02,15.55,18.47,26.69,22.09
				c17.25,5.62,35.32-4.39,50.7-14.01c5.75-3.6,11.87-7.63,14.24-13.98c5-13.35-8.82-25.53-20.07-34.3
				c-57.53-44.86-85.51-116.85-110.87-185.26c-4.45-12.01-8.91-24.05-12.01-36.48c-12.03-48.25-2.97-98.95,6.13-147.84
				c0.98-5.25,2.33-11.08,6.82-13.98c5.09-3.28,11.9-1.25,17.16,1.76c17.97,10.3,28.28,29.81,37.35,48.43
				c54.42,111.66,99.04,230.91,104.01,355.03c14.77,9.88,36.16-0.28,44.47-15.98c8.31-15.71,7.26-34.5,6.02-52.23
				c-7.05-100.79-13.51-202.46-40.29-299.88c-14.48-52.69-34.91-103.74-60.65-151.94c-21.3-39.88-49.01-98.35-88.2-122.87
				C174.37,67.82,148.36,44.9,120.35,58.3z"/>
		</g>
		<path class="st0" d="M225.19,775.47c-38.22,35.24-77.54,71.98-98.05,119.91c-11.12,25.98-16.51,54.86-32.9,77.84
			c-9.08,12.72-21.1,22.98-31.21,34.89c-26.6,31.33-38.97,74.46-33.03,115.21c5.93,40.75,30.06,78.42,64.45,100.6
			c19.51,12.59,41.73,20.21,62.32,30.93c86.25,44.91,141.37,142.45,234.32,170.73c65.89,20.05,142.61-2.43,187.7-54.99
			c11.07-12.91,20.41-27.46,33.16-38.67c16.7-14.68,38.03-22.59,58.5-31.13c34.87-14.54,69.41-32.29,95.4-59.89
			c25.99-27.6,42.35-66.73,34.93-104c-5.35-26.85-22.02-49.75-33.32-74.65c-14.49-31.91-20.1-67.05-28.71-101.07
			c-9.09-35.94-21.66-70.99-37.45-104.48c-13.3-28.19-29.64-56.15-54.81-74.32c-17.19-12.41-37.51-19.54-57.7-25.89
			c-68.85-21.67-139.97-34.45-209.14-54.4C318.72,684.51,267.27,736.69,225.19,775.47z"/>
	</g>
</g>
</svg>
